<svg xmlns="http://www.w3.org/2000/svg" viewBox="0 0 32 32" width="32" height="32">
  <rect width="32" height="32" rx="7" fill="#FDFBF7"/>
  <g fill="none" stroke="#8DA88D" stroke-width="1.8" stroke-linecap="round" stroke-linejoin="round">
    <path d="M16 27.2 C 12 24 6.8 20.4 6.8 14.8 C 6.8 11.6 9.3 9.2 12.2 9.2 C 14.2 9.2 15.4 10.3 16 11.6 C 16.6 10.2 17.9 9 20 9 C 22.9 9 25.4 11.5 25.4 14.6 C 25.4 20.2 20 24.2 16 27.2 Z" fill="#8DA88D" fill-opacity="0.22"/>
    <path d="M16 11.4 C 16.4 8.2 17.8 5.8 20.2 4.4"/>
    <path d="M17.4 7.6 C 19 6.8 20.6 7.2 21.4 8.2 C 20.3 9.1 18.6 9 17.4 7.6 Z" fill="#8DA88D" fill-opacity="0.3"/>
    <path d="M16.6 9.8 C 15.2 9.2 13.9 9.6 13.2 10.5 C 14.1 11.4 15.6 11.2 16.6 9.8 Z" fill="#8DA88D" fill-opacity="0.3"/>
    <path d="M11.2 14.2 C 12 13.4 12.9 13 13.9 13.2" stroke-width="1.2" opacity="0.75"/>
  </g>
</svg>
